<svg width="69" height="63" viewBox="0 0 69 63" fill="none" xmlns="http://www.w3.org/2000/svg">
<rect x="1.5" y="1.5" width="65.5882" height="60" stroke="url(#paint0_linear_158:78)" stroke-width="3"/>
<path d="M29.7155 7.18912H32.5427V22.2917C32.5427 24.3327 31.9275 25.9294 30.697 27.0817C29.4763 28.234 27.8454 28.8102 25.8044 28.8102C23.6853 28.8102 22.0349 28.2682 20.8532 27.1842C19.6716 26.1003 19.0808 24.5817 19.0808 22.6286H21.8933C21.8933 23.8493 22.2253 24.8014 22.8894 25.485C23.5632 26.1686 24.5349 26.5104 25.8044 26.5104C26.9665 26.5104 27.904 26.1442 28.6169 25.4118C29.3396 24.6794 29.7058 23.654 29.7155 22.3356V7.18912ZM43.6169 19.0104C41.2048 18.317 39.447 17.4674 38.3435 16.4616C37.2497 15.446 36.7029 14.196 36.7029 12.7116C36.7029 11.0319 37.3718 9.64517 38.7097 8.55142C40.0573 7.44791 41.8054 6.89615 43.9538 6.89615C45.4187 6.89615 46.7224 7.17935 47.865 7.74576C49.0173 8.31216 49.906 9.09341 50.531 10.0895C51.1657 11.0856 51.4831 12.1745 51.4831 13.3561H48.656C48.656 12.067 48.2458 11.0563 47.4255 10.3239C46.6052 9.5817 45.448 9.2106 43.9538 9.2106C42.5671 9.2106 41.4831 9.51822 40.7019 10.1335C39.9304 10.7389 39.5447 11.5836 39.5447 12.6676C39.5447 13.5368 39.9109 14.2741 40.6433 14.8795C41.3855 15.4753 42.6404 16.0221 44.4079 16.5202C46.1853 17.0182 47.572 17.57 48.5681 18.1754C49.5739 18.7711 50.3161 19.4694 50.7947 20.2702C51.2829 21.071 51.5271 22.0133 51.5271 23.0973C51.5271 24.8258 50.8532 26.2126 49.5056 27.2575C48.1579 28.2926 46.3562 28.8102 44.1003 28.8102C42.6355 28.8102 41.2683 28.5319 39.9988 27.9753C38.7292 27.4088 37.7478 26.6374 37.0544 25.6608C36.3708 24.6842 36.029 23.5758 36.029 22.3356H38.8562C38.8562 23.6247 39.3298 24.6452 40.2771 25.3971C41.2341 26.1393 42.5085 26.5104 44.1003 26.5104C45.5847 26.5104 46.7224 26.2077 47.5134 25.6022C48.3044 24.9967 48.6999 24.1715 48.6999 23.1266C48.6999 22.0817 48.3337 21.276 47.6013 20.7096C46.8689 20.1335 45.5407 19.567 43.6169 19.0104Z" fill="#3AA2DC"/>
<path d="M18.0195 55.6V34.2719H24.04C25.8955 34.2719 27.5361 34.6821 28.9619 35.5024C30.3877 36.3227 31.4863 37.4897 32.2578 39.0033C33.039 40.517 33.4345 42.2553 33.4443 44.2182V45.5805C33.4443 47.5922 33.0537 49.3549 32.2724 50.8686C31.501 52.3822 30.3926 53.5444 28.9472 54.3549C27.5117 55.1655 25.8369 55.5805 23.9228 55.6H18.0195ZM20.832 36.5863V53.3002H23.791C25.959 53.3002 27.6435 52.6264 28.8447 51.2787C30.0556 49.9311 30.6611 48.0121 30.6611 45.5219V44.2768C30.6611 41.8549 30.0898 39.975 28.9472 38.6371C27.8144 37.2895 26.2031 36.6059 24.1133 36.5863H20.832ZM43.9912 46.0932C41.5791 45.3998 39.8213 44.5502 38.7177 43.5444C37.624 42.5287 37.0771 41.2787 37.0771 39.7944C37.0771 38.1147 37.7461 36.728 39.084 35.6342C40.4316 34.5307 42.1797 33.9789 44.3281 33.9789C45.7929 33.9789 47.0967 34.2621 48.2392 34.8285C49.3916 35.3949 50.2802 36.1762 50.9052 37.1723C51.54 38.1684 51.8574 39.2572 51.8574 40.4389H49.0302C49.0302 39.1498 48.6201 38.1391 47.7998 37.4067C46.9795 36.6645 45.8222 36.2934 44.3281 36.2934C42.9414 36.2934 41.8574 36.601 41.0761 37.2162C40.3047 37.8217 39.9189 38.6664 39.9189 39.7504C39.9189 40.6196 40.2851 41.3569 41.0176 41.9623C41.7597 42.558 43.0146 43.1049 44.7822 43.603C46.5595 44.101 47.9463 44.6528 48.9424 45.2582C49.9482 45.8539 50.6904 46.5522 51.1689 47.353C51.6572 48.1537 51.9013 49.0961 51.9013 50.1801C51.9013 51.9086 51.2275 53.2953 49.8799 54.3403C48.5322 55.3754 46.7304 55.893 44.4746 55.893C43.0097 55.893 41.6426 55.6147 40.373 55.058C39.1035 54.4916 38.122 53.7201 37.4287 52.7436C36.7451 51.767 36.4033 50.6586 36.4033 49.4184H39.2304C39.2304 50.7074 39.7041 51.728 40.6513 52.4799C41.6084 53.2221 42.8828 53.5932 44.4746 53.5932C45.959 53.5932 47.0967 53.2905 47.8877 52.685C48.6787 52.0795 49.0742 51.2543 49.0742 50.2094C49.0742 49.1645 48.708 48.3588 47.9756 47.7924C47.2431 47.2162 45.915 46.6498 43.9912 46.0932Z" fill="#FFE81E"/>
<defs>
<linearGradient id="paint0_linear_158:78" x1="34.2941" y1="0" x2="34.2941" y2="63" gradientUnits="userSpaceOnUse">
<stop stop-color="#FFE81E"/>
<stop offset="1" stop-color="#3AA2DC"/>
</linearGradient>
</defs>
</svg>
